<svg width="243" height="175" viewBox="0 0 243 175" fill="none" xmlns="http://www.w3.org/2000/svg">
<g filter="url(#filter0_g_1958_1799)">
<path d="M58.9022 53.0199V12.9448H47.8951V1.5501H86.6525V12.9448H75.7229V53.0199H58.9022ZM94.8327 52.9424L81.5777 1.5501H99.1735L104.522 31.3933L110.413 1.5501H125.529L130.877 31.4708L135.76 1.5501H150.411L136.768 52.9424H121.11L115.607 24.4945L109.948 52.9424H94.8327ZM170.983 53.64C154.627 53.64 146.798 46.1211 146.798 27.2075C146.798 8.3714 154.705 0.774955 170.983 0.774955C187.339 0.774955 195.168 8.21637 195.168 27.2075C195.168 46.1986 187.339 53.64 170.983 53.64ZM170.983 42.4779C175.711 42.4779 177.417 39.1448 177.417 27.2075C177.417 15.1927 175.711 11.7821 170.983 11.7821C166.177 11.7821 164.472 15.1927 164.472 27.2075C164.472 39.1448 166.177 42.4779 170.983 42.4779ZM26.2742 113.718C9.2985 113.718 2.78726 108.524 5.96537 96.8968H22.0109C20.8482 101.393 22.1659 103.563 25.8091 103.563C28.9872 103.563 30.5375 102.323 30.5375 99.7649C30.5375 91.9359 5.65531 93.8738 5.65531 75.8128C5.65531 66.2785 13.0192 60.8525 25.6541 60.8525C41.1571 60.8525 47.5908 65.8909 44.9553 75.8903H29.9949C30.6926 72.4022 29.3748 70.6968 26.2742 70.6968C23.6387 70.6968 22.3985 71.7821 22.3985 73.7974C22.3985 81.859 47.5133 80.1536 47.5133 97.5945C47.5133 108.447 40.6145 113.718 26.2742 113.718ZM48.5234 112.942V61.5501H65.4991V101.393H79.6843V112.942H48.5234ZM80.0561 112.942V61.5501H115.403V72.9448H96.9544V81.7039H110.364V92.4785H96.9544V101.47H115.79V112.942H80.0561ZM117.342 112.942V61.5501H152.689V72.9448H134.24V81.7039H147.65V92.4785H134.24V101.47H153.076V112.942H117.342ZM154.628 113.02V61.5501H174.161C191.525 61.5501 197.416 66.6661 197.416 79.7661C197.416 92.7885 191.292 98.4471 175.014 98.4471H171.526V113.02H154.628ZM171.526 87.44H174.084C177.805 87.44 179.665 85.7347 179.665 79.7661C179.665 74.03 178.037 72.5572 174.084 72.5572H171.526V87.44ZM208.064 112.942V99.2223L192.174 61.5501H211.553L218.606 84.8045L225.04 61.5501H242.093L225.04 99.1448V112.942H208.064ZM0.774603 173.02V121.55H20.3083C37.6716 121.55 43.5627 126.666 43.5627 139.766C43.5627 152.789 37.4391 158.447 21.161 158.447H17.6728V173.02H0.774603ZM17.6728 147.44H20.2308C23.9515 147.44 25.8119 145.735 25.8119 139.766C25.8119 134.03 24.1841 132.557 20.2308 132.557H17.6728V147.44ZM45.3274 172.942V121.55H80.6741V132.945H62.2256V141.704H75.6357V152.478H62.2256V161.47H81.0617V172.942H45.3274ZM103.569 173.64C87.2138 173.64 79.3849 166.121 79.3849 147.207C79.3849 128.371 87.2914 120.775 103.569 120.775C119.925 120.775 127.754 128.216 127.754 147.207C127.754 166.199 119.925 173.64 103.569 173.64ZM103.569 162.478C108.298 162.478 110.003 159.145 110.003 147.207C110.003 135.193 108.298 131.782 103.569 131.782C98.7635 131.782 97.0582 135.193 97.0582 147.207C97.0582 159.145 98.7635 162.478 103.569 162.478ZM129.437 173.02V121.55H148.971C166.334 121.55 172.225 126.666 172.225 139.766C172.225 152.789 166.101 158.447 149.823 158.447H146.335V173.02H129.437ZM146.335 147.44H148.893C152.614 147.44 154.474 145.735 154.474 139.766C154.474 134.03 152.846 132.557 148.893 132.557H146.335V147.44ZM173.99 172.942V121.55H190.966V161.393H205.151V172.942H173.99ZM205.523 172.942V121.55H240.869V132.945H222.421V141.704H235.831V152.478H222.421V161.47H241.257V172.942H205.523Z" fill="white"/>
</g>
<defs>
<filter id="filter0_g_1958_1799" x="0.000243068" y="-0.000245214" width="242.869" height="174.416" filterUnits="userSpaceOnUse" color-interpolation-filters="sRGB">
<feFlood flood-opacity="0" result="BackgroundImageFix"/>
<feBlend mode="normal" in="SourceGraphic" in2="BackgroundImageFix" result="shape"/>
<feTurbulence type="fractalNoise" baseFrequency="9.0305385589599609 9.0305385589599609" numOctaves="3" seed="9720" />
<feDisplacementMap in="shape" scale="1.5502951145172119" xChannelSelector="R" yChannelSelector="G" result="displacedImage" width="100%" height="100%" />
<feMerge result="effect1_texture_1958_1799">
<feMergeNode in="displacedImage"/>
</feMerge>
</filter>
</defs>
</svg>
