<svg width="605" height="443" viewBox="0 0 605 443" fill="none" xmlns="http://www.w3.org/2000/svg">
<g filter="url(#filter0_g_2002_116)">
<path d="M29.0801 138.182V33.6942H1.96484V3.98491H97.4412V33.6942H70.5169V138.182H29.0801Z" fill="white"/>
<path d="M117.593 137.98L84.9398 3.98491H128.286L141.462 81.795L155.974 3.98491H193.21L206.386 81.9971L218.416 3.98491H254.506L220.898 137.98H182.326L168.768 63.8077L154.829 137.98H117.593Z" fill="white"/>
<path d="M305.184 139.799C264.893 139.799 245.607 120.195 245.607 70.8814C245.607 21.7701 265.084 1.96387 305.184 1.96387C345.475 1.96387 364.762 21.3659 364.762 70.8814C364.762 120.397 345.475 139.799 305.184 139.799ZM305.184 110.696C316.833 110.696 321.034 102.005 321.034 70.8814C321.034 39.5552 316.833 30.6626 305.184 30.6626C293.345 30.6626 289.144 39.5552 289.144 70.8814C289.144 102.005 293.345 110.696 305.184 110.696Z" fill="white"/>
<path d="M55.4316 290.568C13.613 290.568 -2.42707 277.028 5.40199 246.712H44.9292C42.0649 258.434 45.3111 264.093 54.2859 264.093C62.115 264.093 65.934 260.859 65.934 254.19C65.934 233.777 4.63818 238.83 4.63818 191.74C4.63818 166.881 22.7787 152.734 53.904 152.734C92.0946 152.734 107.944 165.87 101.451 191.942H64.5974C66.3159 182.847 63.0697 178.401 55.4316 178.401C48.9392 178.401 45.884 181.23 45.884 186.485C45.884 207.504 107.753 203.057 107.753 248.531C107.753 276.825 90.7579 290.568 55.4316 290.568Z" fill="white"/>
<path d="M110.241 288.547V154.552H152.06V258.434H187.004V288.547H110.241Z" fill="white"/>
<path d="M187.92 288.547V154.552H274.995V184.262H229.548V207.1H262.583V235.192H229.548V258.636H275.949V288.547H187.92Z" fill="white"/>
<path d="M279.771 288.547V154.552H366.846V184.262H321.399V207.1H354.434V235.192H321.399V258.636H367.801V288.547H279.771Z" fill="white"/>
<path d="M371.623 288.75V154.552H419.743C462.516 154.552 477.029 167.891 477.029 202.047C477.029 236 461.943 250.754 421.843 250.754H413.25V288.75H371.623ZM413.25 222.055H419.552C428.717 222.055 433.3 217.609 433.3 202.047C433.3 187.091 429.29 183.251 419.552 183.251H413.25V222.055Z" fill="white"/>
<path d="M503.261 288.547V252.775L464.115 154.552H511.854L529.23 215.184L545.079 154.552H587.089L545.079 252.573V288.547H503.261Z" fill="white"/>
<path d="M10.5577 439.317V305.12H58.6778C101.451 305.12 115.964 318.459 115.964 352.614C115.964 386.568 100.878 401.322 60.7783 401.322H52.1854V439.317H10.5577ZM52.1854 372.623H58.4869C67.6526 372.623 72.2355 368.176 72.2355 352.614C72.2355 337.659 68.2255 333.819 58.4869 333.819H52.1854V372.623Z" fill="white"/>
<path d="M120.311 439.115V305.12H207.385V334.829H161.939V357.667H194.973V385.76H161.939V409.204H208.34V439.115H120.311Z" fill="white"/>
<path d="M263.786 440.934C223.495 440.934 204.209 421.33 204.209 372.016C204.209 322.905 223.686 303.099 263.786 303.099C304.078 303.099 323.364 322.501 323.364 372.016C323.364 421.532 304.078 440.934 263.786 440.934ZM263.786 411.831C275.435 411.831 279.636 403.14 279.636 372.016C279.636 340.69 275.435 331.798 263.786 331.798C251.947 331.798 247.746 340.69 247.746 372.016C247.746 403.14 251.947 411.831 263.786 411.831Z" fill="white"/>
<path d="M327.509 439.317V305.12H375.63C418.403 305.12 432.915 318.459 432.915 352.614C432.915 386.568 417.83 401.322 377.73 401.322H369.137V439.317H327.509ZM369.137 372.623H375.439C384.604 372.623 389.187 368.176 389.187 352.614C389.187 337.659 385.177 333.819 375.439 333.819H369.137V372.623Z" fill="white"/>
<path d="M437.263 439.115V305.12H479.081V409.002H514.026V439.115H437.263Z" fill="white"/>
<path d="M514.942 439.115V305.12H602.016V334.829H556.569V357.667H589.604V385.76H556.569V409.204H602.971V439.115H514.942Z" fill="white"/>
</g>
<defs>
<filter id="filter0_g_2002_116" x="0.00077188" y="-0.000204682" width="604.934" height="442.898" filterUnits="userSpaceOnUse" color-interpolation-filters="sRGB">
<feFlood flood-opacity="0" result="BackgroundImageFix"/>
<feBlend mode="normal" in="SourceGraphic" in2="BackgroundImageFix" result="shape"/>
<feTurbulence type="fractalNoise" baseFrequency="1.6971544027328491 1.6971544027328491" numOctaves="3" seed="276" />
<feDisplacementMap in="shape" scale="3.9281437397003174" xChannelSelector="R" yChannelSelector="G" result="displacedImage" width="100%" height="100%" />
<feMerge result="effect1_texture_2002_116">
<feMergeNode in="displacedImage"/>
</feMerge>
</filter>
</defs>
</svg>
