<svg width="504" height="79" viewBox="0 0 504 79" fill="none" xmlns="http://www.w3.org/2000/svg">
<g filter="url(#filter0_d_2074_3725)">
<rect x="3.08089" y="0.616049" width="497.768" height="72.38" rx="5.54445" fill="#D42568" stroke="black" stroke-width="1.2321"/>
<path d="M56.0217 53.2935V30.5502H49.775V24.0835H71.7705V30.5502H65.5678V53.2935H56.0217ZM78.6124 53.2495L71.09 24.0835H81.0759L84.1113 41.02L87.4546 24.0835H96.0329L99.0682 41.064L101.84 24.0835H110.154L102.412 53.2495H93.5254L90.402 37.1048L87.1907 53.2495H78.6124ZM124.029 53.6454C114.747 53.6454 110.303 49.3783 110.303 38.6445C110.303 27.9547 114.791 23.6436 124.029 23.6436C133.311 23.6436 137.754 27.8667 137.754 38.6445C137.754 49.4223 133.311 53.6454 124.029 53.6454ZM124.029 47.3107C126.712 47.3107 127.68 45.4191 127.68 38.6445C127.68 31.8259 126.712 29.8903 124.029 29.8903C121.301 29.8903 120.333 31.8259 120.333 38.6445C120.333 45.4191 121.301 47.3107 124.029 47.3107ZM161.16 53.6894C151.526 53.6894 147.83 50.742 149.634 44.1434H158.74C158.08 46.6949 158.828 47.9266 160.896 47.9266C162.699 47.9266 163.579 47.2228 163.579 45.7711C163.579 41.328 149.458 42.4277 149.458 32.1778C149.458 26.767 153.637 23.6876 160.808 23.6876C169.606 23.6876 173.257 26.547 171.762 32.2218H163.271C163.667 30.2422 162.919 29.2744 161.16 29.2744C159.664 29.2744 158.96 29.8903 158.96 31.0341C158.96 35.6091 173.213 34.6413 173.213 44.5393C173.213 50.698 169.298 53.6894 161.16 53.6894ZM175.986 53.2495V24.0835H185.62V46.6949H193.67V53.2495H175.986ZM196.081 53.2495V24.0835H216.141V30.5502H205.671V35.5212H213.281V41.6359H205.671V46.7389H216.361V53.2495H196.081ZM219.441 53.2495V24.0835H239.501V30.5502H229.031V35.5212H236.641V41.6359H229.031V46.7389H239.721V53.2495H219.441ZM242.801 53.2935V24.0835H253.886C263.74 24.0835 267.084 26.9869 267.084 34.4214C267.084 41.8119 263.608 45.0232 254.37 45.0232H252.391V53.2935H242.801ZM252.391 38.7765H253.842C255.954 38.7765 257.01 37.8087 257.01 34.4214C257.01 31.1661 256.086 30.3302 253.842 30.3302H252.391V38.7765ZM275.327 53.2495V45.4631L266.308 24.0835H277.306L281.309 37.2808L284.961 24.0835H294.639L284.961 45.4191V53.2495H275.327ZM305.663 53.2935V24.0835H316.749C326.603 24.0835 329.946 26.9869 329.946 34.4214C329.946 41.8119 326.471 45.0232 317.233 45.0232H315.253V53.2935H305.663ZM315.253 38.7765H316.705C318.816 38.7765 319.872 37.8087 319.872 34.4214C319.872 31.1661 318.948 30.3302 316.705 30.3302H315.253V38.7765ZM333.147 53.2495V24.0835H353.207V30.5502H342.737V35.5212H350.348V41.6359H342.737V46.7389H353.427V53.2495H333.147ZM368.4 53.6454C359.118 53.6454 354.675 49.3783 354.675 38.6445C354.675 27.9547 359.162 23.6436 368.4 23.6436C377.682 23.6436 382.125 27.8667 382.125 38.6445C382.125 49.4223 377.682 53.6454 368.4 53.6454ZM368.4 47.3107C371.083 47.3107 372.051 45.4191 372.051 38.6445C372.051 31.8259 371.083 29.8903 368.4 29.8903C365.673 29.8903 364.705 31.8259 364.705 38.6445C364.705 45.4191 365.673 47.3107 368.4 47.3107ZM385.28 53.2935V24.0835H396.366C406.22 24.0835 409.563 26.9869 409.563 34.4214C409.563 41.8119 406.088 45.0232 396.849 45.0232H394.87V53.2935H385.28ZM394.87 38.7765H396.322C398.433 38.7765 399.489 37.8087 399.489 34.4214C399.489 31.1661 398.565 30.3302 396.322 30.3302H394.87V38.7765ZM412.764 53.2495V24.0835H422.398V46.6949H430.448V53.2495H412.764ZM432.859 53.2495V24.0835H452.919V30.5502H442.449V35.5212H450.059V41.6359H442.449V46.7389H453.139V53.2495H432.859Z" fill="white"/>
</g>
<defs>
<filter id="filter0_d_2074_3725" x="0.000646353" y="0" width="503.928" height="78.5407" filterUnits="userSpaceOnUse" color-interpolation-filters="sRGB">
<feFlood flood-opacity="0" result="BackgroundImageFix"/>
<feColorMatrix in="SourceAlpha" type="matrix" values="0 0 0 0 0 0 0 0 0 0 0 0 0 0 0 0 0 0 127 0" result="hardAlpha"/>
<feOffset dy="2.4642"/>
<feGaussianBlur stdDeviation="1.2321"/>
<feComposite in2="hardAlpha" operator="out"/>
<feColorMatrix type="matrix" values="0 0 0 0 0 0 0 0 0 0 0 0 0 0 0 0 0 0 0.25 0"/>
<feBlend mode="normal" in2="BackgroundImageFix" result="effect1_dropShadow_2074_3725"/>
<feBlend mode="normal" in="SourceGraphic" in2="effect1_dropShadow_2074_3725" result="shape"/>
</filter>
</defs>
</svg>
