<svg width="180" height="29" viewBox="0 0 180 29" fill="none" xmlns="http://www.w3.org/2000/svg">
<path d="M139.91 0.00420995V21.1116C139.91 22.4835 140.584 23.1881 141.956 23.2581C141.973 23.2595 148.87 23.2595 148.87 23.2595V25.6275C148.87 25.8919 148.727 26.0776 148.435 26.0776H137.242C133.785 26.0776 133.273 24.1627 133.273 22.4235V1.439C133.273 0.448651 133.648 -0.0200851 134.812 0.00563823L139.91 0.00420995Z" fill="white"/>
<path d="M127.006 0.00420995L127.007 24.7029C127.007 25.8018 126.544 26.0776 125.615 26.0776H120.363V1.36755C120.363 0.552974 120.673 0.00563823 121.851 0.00563823L127.006 0.00420995Z" fill="white"/>
<path d="M17.1992 3.59697C17.1992 1.60913 17.2035 -1.67918e-06 20.4494 -1.67918e-06H34.7173V2.50945C34.7173 2.68808 34.6335 2.84957 34.3849 2.84957L25.8347 2.84671C24.6855 2.84671 24.1073 3.40119 24.1073 4.56731V11.1882H34.1676L34.169 13.8177C34.169 14.0506 34.0241 14.1735 33.7968 14.1735H24.1073V24.6787C24.086 25.6919 23.5831 26.0949 22.4779 26.0749H17.1992V3.59697Z" fill="white"/>
<path d="M45.0182 0.00113688V19.8752C45.0182 21.5816 45.2582 22.7777 46.4486 23.4694C48.0439 24.3983 50.7458 24.4126 52.3723 23.4951C53.4846 22.8706 53.9093 21.8674 53.9093 19.881V1.32589C53.9093 0.491309 54.2261 0.00113688 55.3853 0.00113688H60.5489L60.5503 19.2879C60.5503 23.768 57.7462 25.6058 55.2674 26.2875C51.9689 27.1921 46.9586 27.2064 43.8462 26.2661C40.1272 25.1399 38.3899 22.9249 38.3857 19.2893L38.3828 1.34018C38.3828 0.47416 38.6925 0.00113688 39.6826 0.00113688H45.0182Z" fill="white"/>
<path d="M170.606 0.00563878C169.296 0.00563878 168.549 0.62014 168.253 1.79627L164.024 19.7754L163.909 19.7726L159.541 0.00563878H153.569C152.417 0.00563878 152.055 0.601563 152.055 1.52189V26.0776H154.578C154.984 26.0776 155.151 25.8747 155.151 25.4589V4.8702H155.551L160.95 26.0776H164.486C165.818 26.0776 166.314 25.5274 166.642 24.2027L171.489 4.8702H171.881L171.88 26.0776L176.597 26.0705C177.755 26.0705 178.284 25.6232 178.284 24.4785V0.0042105L170.606 0.00563878Z" fill="white"/>
<path d="M92.1044 14.1735H85.4648V26.0776H90.7152C91.6399 26.0776 92.1059 25.8047 92.1059 24.7029C92.1059 24.7029 92.1044 19.6111 92.1044 14.1735Z" fill="white"/>
<path d="M91.7166 9.08583C91.9496 8.89576 92.086 8.75285 92.103 8.34414V0.00549924H86.9479C85.7873 0.00549924 85.4648 0.575701 85.4648 1.38741V14.0118L91.7166 9.08583Z" fill="white"/>
<path d="M68.9588 24.0154C71.8425 23.6053 72.8014 21.8818 72.8014 19.3409V1.42037C72.8014 0.348566 73.3781 0.0012985 74.1225 0.0012985H79.441V16.9458C79.441 21.113 78.5687 23.218 76.1155 24.9943C74.8384 25.9161 72.6053 26.9679 67.767 26.9679C64.9969 26.9679 63.7653 26.8107 63.5991 26.7721C63.3647 26.7178 63.2695 26.5735 63.2695 26.3691V24.1812C64.4074 24.2141 67.0127 24.2941 68.9588 24.0154Z" fill="white"/>
<path d="M102.166 0.000471264C98.9229 0.000471264 98.9214 1.60961 98.9214 3.59745V10.3155C98.9214 10.4541 98.8618 10.5099 98.7993 10.5713L94.2578 14.1712H98.9214V26.0739H104.197C105.303 26.0953 105.805 25.6909 105.824 24.6791V14.174H115.513C115.741 14.174 115.887 14.0497 115.887 13.8182V11.1873H105.824V4.56636C105.824 3.40166 106.403 2.84576 107.551 2.84576L116.104 2.84861C116.35 2.84861 116.437 2.68856 116.437 2.50992V0.000471264H102.166Z" fill="white"/>
</svg>
