<svg width="130" height="44" viewBox="0 0 130 44" fill="none" xmlns="http://www.w3.org/2000/svg">
<g clip-path="url(#clip0_627_226)">
<path fill-rule="evenodd" clip-rule="evenodd" d="M27.6718 0.068962L2.73836 1.89644C0.720621 2.03701 0 3.37248 0 4.9188V31.6281C0 32.823 0.432372 33.8773 1.5133 35.2127L7.35033 42.6632C8.28714 43.8581 9.22395 44.1392 11.0255 43.9987L39.9945 42.3118C42.4446 42.1712 43.1652 41.0466 43.1652 39.1488V9.06577C43.1652 8.08174 42.8049 7.80059 41.5798 6.95714C41.5078 6.88685 41.4357 6.88685 41.3636 6.81657L33.4368 1.40443C31.5632 -0.00132546 30.7705 -0.141901 27.6718 0.068962ZM11.6741 8.57375C9.29601 8.71433 8.79157 8.78462 7.42239 7.66002L4.03548 5.05938C3.67517 4.70794 3.81929 4.28621 4.7561 4.21593L28.7528 2.52903C30.7705 2.38845 31.7794 3.02104 32.5721 3.65363L36.6796 6.53542C36.8958 6.6057 37.3282 7.09772 36.7517 7.09772L11.9623 8.57375H11.6741ZM8.9357 38.8677V13.3533C8.9357 12.2287 9.29601 11.7367 10.3049 11.6664L38.7694 10.0498C39.7062 9.97951 40.1386 10.5418 40.1386 11.6664V36.9699C40.1386 38.0945 39.9224 39.0083 38.4091 39.0785L11.1696 40.6249C9.65632 40.7654 8.9357 40.2031 8.9357 38.8677ZM35.8149 14.7591C35.959 15.5322 35.8149 16.3054 35.0222 16.3757L33.7251 16.6568V35.4939C32.5721 36.1265 31.5632 36.4076 30.6984 36.4076C29.3293 36.4076 28.969 35.9859 27.888 34.7207L19.2406 21.5067V34.2287L21.9789 34.8613C21.9789 34.8613 21.9789 36.4076 19.8171 36.4076L13.7639 36.7591C13.6197 36.4076 13.7639 35.5642 14.3404 35.4236L15.9257 35.0019V18.1329L13.7639 17.922C13.6197 17.1488 14.0521 16.0242 15.2772 15.9539L21.7627 15.5322L30.6984 28.8869V17.0785L28.3925 16.7974C28.2483 15.8837 28.8969 15.1808 29.7616 15.1105L35.8149 14.7591Z" fill="white"/>
<path d="M62.3332 31.2081V19.6107H62.5494L71.1248 31.2081H73.8632V14.1282H70.8366V25.7257H70.6204L62.045 14.1282H59.3066V31.2081H62.3332ZM82.2944 31.419C86.2579 31.419 88.6359 28.8886 88.6359 24.6714C88.6359 20.5244 86.1858 17.9238 82.2944 17.9238C78.331 17.9238 75.953 20.4541 75.953 24.6714C75.8809 28.8886 78.331 31.419 82.2944 31.419ZM82.2944 28.9589C80.2046 28.9589 78.9796 27.4126 78.9796 24.6714C78.9796 22.0004 80.2046 20.3838 82.2944 20.3838C84.3842 20.3838 85.6093 21.9302 85.6093 24.6714C85.5372 27.4126 84.3842 28.9589 82.2944 28.9589ZM91.3743 15.1123V18.3455H89.2845V20.665H91.3743V27.6937C91.3743 30.2241 92.5993 31.2081 95.6259 31.2081C96.2024 31.2081 96.7789 31.1378 97.2113 31.0675V28.8183C96.851 28.8886 96.6348 28.8886 96.2024 28.8886C94.9774 28.8886 94.4009 28.3263 94.4009 27.0611V20.7353H97.2113V18.4158H94.4009V15.1825H91.3743V15.1123ZM99.0128 31.2081H102.039V18.2752H99.0128V31.2081ZM100.526 16.0963C101.535 16.0963 102.328 15.3231 102.328 14.3391C102.328 13.3551 101.535 12.5819 100.526 12.5819C99.5173 12.5819 98.7246 13.3551 98.7246 14.3391C98.7246 15.3231 99.5173 16.0963 100.526 16.0963ZM110.255 31.419C114.218 31.419 116.596 28.8886 116.596 24.6714C116.596 20.5244 114.146 17.9238 110.255 17.9238C106.291 17.9238 103.913 20.4541 103.913 24.6714C103.841 28.8886 106.291 31.419 110.255 31.419ZM110.255 28.9589C108.165 28.9589 106.94 27.4126 106.94 24.6714C106.94 22.0004 108.165 20.3838 110.255 20.3838C112.344 20.3838 113.569 21.9302 113.569 24.6714C113.497 27.4126 112.344 28.9589 110.255 28.9589ZM118.398 31.2081H121.424V23.6171C121.424 21.7193 122.577 20.5244 124.307 20.5244C126.108 20.5244 126.973 21.5084 126.973 23.4765V31.1378H130V22.7736C130 19.681 128.414 17.9238 125.46 17.9238C123.514 17.9238 122.145 18.8375 121.496 20.2433H121.28V18.2752H118.398V31.2081Z" fill="white"/>
</g>
<defs>
<clipPath id="clip0_627_226">
<rect width="130" height="44" fill="white"/>
</clipPath>
</defs>
</svg>
