<svg width="197" height="41" viewBox="0 0 197 41" fill="none" xmlns="http://www.w3.org/2000/svg">
<g clip-path="url(#clip0_627_409)">
<path d="M197.001 10.0895H192.874V25.4911L180.948 10.0895H176.054V30.8232H180.181V15.4215L192.104 30.8232H197.001V10.0895ZM156.91 10.0895H152.357L142.567 30.8211H147.12L148.345 28.1564C148.856 27.0314 149.654 26.5266 150.85 26.5266H158.25L157.367 24.572C156.827 23.357 155.944 22.7955 154.636 22.7955H150.852L154.636 14.6212L162.149 30.8213H166.703L156.91 10.0895ZM133.228 10.0895H128.958V30.8211H133.228V10.0895ZM119.542 10.0895H114.989L107.76 26.143L100.53 10.0895H95.9765L105.482 30.8232H110.036L119.542 10.0895ZM86.6375 10.0895H82.3676V30.8211H86.6375V10.0895ZM71.2872 16.9922C71.2872 13.4979 69.0103 10.0916 64.1143 10.0916H51.4492V30.8233H55.7192V13.8226H63.49C65.8815 13.8226 67.019 15.0377 67.019 16.9922C67.019 18.9761 65.8796 20.1912 63.49 20.1912H60.1844C58.6866 20.1912 57.845 21.0668 57.845 22.6254V23.9243H60.2165C61.3258 23.9243 62.1512 24.3098 62.8357 25.2273L67.0472 30.8249H72.2834L66.4211 23.0654C69.5516 22.3217 71.2872 20.1891 71.2872 16.9922Z" fill="white"/>
<path d="M21.7681 24.8628C22.7908 23.8908 24.5926 22.0724 25.263 21.2575C25.5689 20.8972 25.5489 20.4468 25.5489 20.4468C25.5489 20.4468 25.5689 19.9963 25.263 19.636C24.5926 18.8211 22.7908 17.0027 21.7681 16.0307C21.3494 15.6243 21.2487 15.3687 21.2487 14.8701V9.35845C21.2487 9.09658 21.4883 8.98136 21.6917 9.16572C23.9726 11.3633 29.0538 16.6027 30.7568 18.6326C31.5702 19.5313 31.4957 20.4469 31.4957 20.4469C31.4957 20.4469 31.5702 21.3602 30.7568 22.261C29.0517 24.291 23.9705 29.5303 21.6917 31.7279C21.4883 31.9123 21.2487 31.797 21.2487 31.5352V26.0235C21.2508 25.5228 21.3494 25.2692 21.7681 24.8628ZM18.7685 24.8586C17.7459 23.8866 15.9441 22.0681 15.2737 21.2533C14.9677 20.893 14.9878 20.4425 14.9878 20.4425C14.9878 20.4425 14.9677 19.9921 15.2737 19.6318C15.9441 18.8168 17.7459 16.9985 18.7685 16.0265C19.1872 15.6201 19.2879 15.3644 19.2879 14.8659V9.33744C19.2879 9.11538 19.0383 8.97711 18.845 9.16356C16.5642 11.3612 11.483 16.6005 9.77979 18.6305C8.96446 19.5292 9.04096 20.4447 9.04096 20.4447C9.04096 20.4447 8.96647 21.3581 9.77979 22.2589C11.4849 24.2889 16.5661 29.5283 18.845 31.7258C19.0483 31.9101 19.2879 31.7949 19.2879 31.5331V26.0213C19.2879 25.5186 19.1872 25.263 18.7685 24.8586ZM0.0761583 22.0409C2.36914 24.5024 14.7743 37.8177 17.0989 39.7385C17.9103 40.4152 18.9551 40.9117 20.2656 40.9117C21.5782 40.9117 22.623 40.4152 23.4324 39.7385C25.7576 37.8176 38.1621 24.5019 40.4552 22.0409C40.6423 21.8167 40.4732 21.4648 40.1914 21.4648C39.0459 21.4648 36.3905 21.4606 34.7901 21.4606C34.2264 21.4606 34.0593 21.5632 33.7049 21.9592C33.3506 22.3551 31.5872 24.3244 31.5872 24.3244C29.3444 26.8403 23.8747 32.396 21.8757 34.1474C21.1248 34.8052 20.2753 34.7842 20.2631 34.7842C20.251 34.7842 19.4015 34.8052 18.6506 34.1474C16.6515 32.3939 11.1818 26.8382 8.93909 24.3244C8.93909 24.3244 7.17555 22.3551 6.82124 21.9592C6.46694 21.5632 6.29983 21.4606 5.73617 21.4606C4.13771 21.4606 1.48037 21.4648 0.334819 21.4648C0.057 21.4648 -0.112105 21.8167 0.0751241 22.0409H0.0761583ZM40.4582 18.8714C38.1652 16.4098 25.76 3.09457 23.4354 1.17372C22.6241 0.497059 21.5793 0.000610352 20.2688 0.000610352C18.9561 0.000610352 17.9114 0.4971 17.1021 1.17372C14.7768 3.09478 2.36944 16.4103 0.0763553 18.8714C-0.110864 19.0955 0.0582372 19.4474 0.340079 19.4474C1.48554 19.4474 4.1409 19.4516 5.74143 19.4516C6.30511 19.4516 6.4722 19.349 6.8265 18.9531C7.18083 18.5571 8.94435 16.5879 8.94435 16.5879C11.187 14.0719 16.6568 8.51621 18.6559 6.76489C19.4067 6.10709 20.2563 6.12804 20.2684 6.12804C20.2804 6.12804 21.13 6.10709 21.8809 6.76489C23.88 8.51836 29.3497 14.074 31.5924 16.5879C31.5924 16.5879 33.3559 18.5571 33.7102 18.9531C34.0645 19.349 34.2317 19.4516 34.7953 19.4516C36.3937 19.4516 39.0512 19.4474 40.1966 19.4474C40.4784 19.4496 40.6455 19.0955 40.4582 18.8714Z" fill="white"/>
</g>
<defs>
<clipPath id="clip0_627_409">
<rect width="197" height="41" fill="white"/>
</clipPath>
</defs>
</svg>
